<?xml version="1.0" standalone="no"?><!DOCTYPE svg PUBLIC "-//W3C//DTD SVG 1.1//EN" "http://www.w3.org/Graphics/SVG/1.1/DTD/svg11.dtd"><svg t="1587813622924" class="icon" viewBox="0 0 1162 1024" version="1.1" xmlns="http://www.w3.org/2000/svg" p-id="1919" xmlns:xlink="http://www.w3.org/1999/xlink" width="680.859375" height="600"><defs><style type="text/css"></style></defs><path d="M1035.810133 888.832C982.4256 888.832 240.776533 888.832 240.776533 888.832L363.588267 654.813867 554.5984 775.099733C572.0064 785.954133 595.012267 781.312 606.754133 764.450133L1025.2288 209.373867 1024.887467 299.2128C1028.369067 317.713067 1045.026133 354.7136 1094.656 354.7136 1121.28 354.7136 1160.260267 340.5824 1160.260267 266.6496 1160.260267 190.941867 1161.898667 103.560533 1161.216 78.2336 1160.6016 53.998933 1143.534933 3.6864 1088.170667 2.389333 999.082667 0.2048 937.096533 1.4336 890.129067 1.4336 843.229867 1.4336 807.662933 0.887467 807.662933 0.887467 786.6368 4.9152 766.7712 30.9248 766.7712 52.224 766.7712 106.2912 770.184533 136.260267 817.083733 136.260267 864.0512 136.260267 919.210667 136.874667 919.210667 136.874667L564.4288 594.056533 364.544 469.265067C346.9312 458.3424 323.857067 463.189333 312.183467 480.256L135.7824 766.1568 135.7824 44.100267C135.7824 22.801067 82.193067 5.461333 60.893867 5.461333 39.5264 5.461333 0.2048 22.801067 0.2048 44.100267L0.2048 984.814933C0.2048 984.814933 0.2048 984.8832 0.2048 984.951467L0.2048 985.088C0.2048 985.565867 0.273067 986.043733 0.273067 986.5216 0.4096 988.5696 0.546133 990.6176 0.955733 992.597333 1.160533 993.757867 1.570133 994.781867 1.911467 995.9424 2.2528 997.239467 2.594133 998.536533 3.072 999.765333 3.549867 1000.8576 4.164267 1001.8816 4.7104 1002.973867 5.3248 1004.1344 5.870933 1005.294933 6.621867 1006.3872 7.304533 1007.4112 8.123733 1008.298667 8.874667 1009.322667 9.693867 1010.2784 10.4448 1011.3024 11.332267 1012.258133 12.561067 1013.486933 13.994667 1014.5792 15.428267 1015.671467 15.9744 1016.149333 16.452267 1016.6272 16.9984 1017.0368 17.066667 1017.0368 17.066667 1017.105067 17.134933 1017.105067 17.339733 1017.2416 17.6128 1017.378133 17.8176 1017.514667 19.524267 1018.606933 21.2992 1019.562667 23.1424 1020.381867 23.7568 1020.654933 24.439467 1020.859733 25.053867 1021.1328 26.624 1021.7472 28.2624 1022.225067 29.832533 1022.634667 30.5152 1022.7712 31.197867 1022.907733 31.880533 1023.044267 34.133333 1023.522133 36.4544 1023.726933 38.775467 1023.726933L38.775467 1023.726933C38.775467 1023.726933 38.775467 1023.726933 38.843733 1023.726933 38.843733 1023.726933 996.352 1023.726933 1043.2512 1023.726933 1090.218667 1023.726933 1102.2336 980.855467 1102.2336 953.070933 1102.2336 925.354667 1089.1264 888.832 1035.810133 888.832Z" p-id="1920"></path></svg>